<svg width="40" height="40" viewBox="0 0 40 40" fill="none" xmlns="http://www.w3.org/2000/svg">
<g id="streamline-emojis:christmas-tree">
<path id="Vector" opacity="0.15" d="M10 37.9166C10 38.2481 11.0536 38.5661 12.9289 38.8005C14.8043 39.0349 17.3478 39.1666 20 39.1666C22.6522 39.1666 25.1957 39.0349 27.0711 38.8005C28.9464 38.5661 30 38.2481 30 37.9166C30 37.5851 28.9464 37.2672 27.0711 37.0327C25.1957 36.7983 22.6522 36.6666 20 36.6666C17.3478 36.6666 14.8043 36.7983 12.9289 37.0327C11.0536 37.2672 10 37.5851 10 37.9166Z" fill="#45413C"/>
<path id="Vector_2" d="M25.3999 36.8084C25.4773 36.9109 25.5246 37.033 25.5365 37.1609C25.5484 37.2888 25.5245 37.4174 25.4674 37.5325C25.4103 37.6476 25.3223 37.7445 25.2132 37.8123C25.1042 37.8802 24.9784 37.9163 24.8499 37.9167H15.0582C14.9298 37.9163 14.804 37.8802 14.6949 37.8123C14.5859 37.7445 14.4978 37.6476 14.4407 37.5325C14.3836 37.4174 14.3597 37.2888 14.3716 37.1609C14.3836 37.033 14.4309 36.9109 14.5082 36.8084C15.715 35.2003 16.3672 33.2439 16.3666 31.2334V28.05H23.5416V31.2334C23.541 33.2439 24.1931 35.2003 25.3999 36.8084Z" fill="#DEA47A"/>
<path id="Vector_3" d="M24.0666 34.3C23.7167 33.3156 23.5391 32.2782 23.5416 31.2334V28.05H16.3666V31.2334C16.3624 32.2783 16.1821 33.315 15.8333 34.3H24.0666Z" fill="#BF8256"/>
<path id="Vector_4" d="M25.3999 36.8084C25.4773 36.9109 25.5246 37.033 25.5365 37.1609C25.5484 37.2888 25.5245 37.4174 25.4674 37.5325C25.4103 37.6476 25.3223 37.7445 25.2132 37.8123C25.1042 37.8802 24.9784 37.9163 24.8499 37.9167H15.0582C14.9298 37.9163 14.804 37.8802 14.6949 37.8123C14.5859 37.7445 14.4978 37.6476 14.4407 37.5325C14.3836 37.4174 14.3597 37.2888 14.3716 37.1609C14.3836 37.033 14.4309 36.9109 14.5082 36.8084C15.715 35.2003 16.3672 33.2439 16.3666 31.2334V28.05H23.5416V31.2334C23.541 33.2439 24.1931 35.2003 25.3999 36.8084Z" stroke="#45413C" stroke-linecap="round" stroke-linejoin="round"/>
<path id="Vector_5" d="M31.8083 28.6L28.6 24.7833C28.5098 24.6752 28.4523 24.5437 28.4341 24.4042C28.4159 24.2646 28.4378 24.1228 28.4972 23.9952C28.5567 23.8676 28.6512 23.7596 28.7697 23.6837C28.8882 23.6078 29.0259 23.5672 29.1666 23.5667H29.6583C29.9001 23.5657 30.1364 23.4941 30.3381 23.3607C30.5398 23.2273 30.6982 23.0379 30.7938 22.8158C30.8893 22.5936 30.918 22.3484 30.8762 22.1102C30.8343 21.872 30.7239 21.6513 30.5583 21.475L27.225 17.9C27.1038 17.7734 27.0226 17.614 26.9915 17.4415C26.9604 17.2691 26.9808 17.0913 27.0501 16.9304C27.1195 16.7695 27.2347 16.6326 27.3814 16.5368C27.5281 16.441 27.6998 16.3905 27.875 16.3917C28.1166 16.3924 28.3532 16.3226 28.5557 16.1909C28.7583 16.0592 28.918 15.8712 29.0153 15.6501C29.1126 15.4289 29.1433 15.1842 29.1035 14.9458C29.0638 14.7075 28.9554 14.486 28.7916 14.3083L21.2916 6.15832C21.1225 5.97741 20.9179 5.83318 20.6907 5.73457C20.4635 5.63596 20.2185 5.58508 19.9708 5.58508C19.7231 5.58508 19.4781 5.63596 19.2509 5.73457C19.0237 5.83318 18.8191 5.97741 18.65 6.15832L11.15 14.3083C10.9867 14.4854 10.8784 14.7062 10.8384 14.9438C10.7984 15.1813 10.8284 15.4254 10.9246 15.6462C11.0209 15.8671 11.1794 16.0551 11.3807 16.1875C11.582 16.3198 11.8174 16.3908 12.0583 16.3917C12.2326 16.3926 12.4028 16.4441 12.5484 16.54C12.6939 16.6358 12.8085 16.7719 12.8782 16.9316C12.9479 17.0913 12.9698 17.2679 12.9411 17.4398C12.9124 17.6117 12.8344 17.7715 12.7166 17.9L9.3833 21.475C9.21727 21.6518 9.10665 21.8733 9.06511 22.1123C9.02356 22.3512 9.0529 22.5971 9.14951 22.8196C9.24611 23.042 9.40576 23.2313 9.60873 23.3641C9.8117 23.4969 10.0491 23.5673 10.2916 23.5667H10.7833C10.924 23.5672 11.0617 23.6078 11.1802 23.6837C11.2988 23.7596 11.3933 23.8676 11.4527 23.9952C11.5121 24.1228 11.534 24.2646 11.5158 24.4042C11.4976 24.5437 11.4401 24.6752 11.35 24.7833L8.09997 28.6C7.86551 28.8685 7.71363 29.1991 7.6626 29.5519C7.61158 29.9048 7.66358 30.2648 7.81236 30.5888C7.96114 30.9127 8.20036 31.1868 8.50123 31.3781C8.8021 31.5693 9.15182 31.6695 9.5083 31.6667H30.3916C30.7488 31.6711 31.0997 31.5721 31.4018 31.3815C31.7039 31.1909 31.9444 30.9169 32.0943 30.5926C32.2441 30.2683 32.2968 29.9076 32.246 29.554C32.1953 29.2004 32.0433 28.8691 31.8083 28.6Z" fill="#6DD627"/>
<path id="Vector_6" d="M11.9 16.3833L18.6334 9.08332C18.8025 8.90241 19.0071 8.75818 19.2343 8.65957C19.4615 8.56096 19.7065 8.51008 19.9542 8.51008C20.2019 8.51008 20.4469 8.56096 20.6741 8.65957C20.9013 8.75818 21.1059 8.90241 21.275 9.08332L28.0084 16.3833C28.2387 16.3621 28.4584 16.2765 28.6424 16.1364C28.8264 15.9962 28.9673 15.8072 29.0489 15.5908C29.1306 15.3744 29.1498 15.1394 29.1043 14.9126C29.0589 14.6859 28.9505 14.4765 28.7917 14.3083L21.2917 6.15832C21.1225 5.97741 20.918 5.83318 20.6908 5.73457C20.4636 5.63596 20.2186 5.58508 19.9709 5.58508C19.7232 5.58508 19.4781 5.63596 19.2509 5.73457C19.0237 5.83318 18.8192 5.97741 18.65 6.15832L11.15 14.3083C10.9922 14.4743 10.8836 14.6809 10.8366 14.9051C10.7895 15.1293 10.8059 15.3622 10.8837 15.5776C10.9616 15.793 11.0979 15.9825 11.2774 16.1248C11.4569 16.2671 11.6725 16.3566 11.9 16.3833Z" fill="#9CEB60"/>
<path id="Vector_7" d="M31.8083 28.6L28.6 24.7833C28.5098 24.6752 28.4523 24.5437 28.4341 24.4042C28.4159 24.2646 28.4378 24.1228 28.4972 23.9952C28.5567 23.8676 28.6512 23.7596 28.7697 23.6837C28.8882 23.6078 29.0259 23.5672 29.1666 23.5667H29.6583C29.9001 23.5657 30.1364 23.4941 30.3381 23.3607C30.5398 23.2273 30.6982 23.0379 30.7938 22.8158C30.8893 22.5936 30.918 22.3484 30.8762 22.1102C30.8343 21.872 30.7239 21.6513 30.5583 21.475L27.225 17.9C27.1038 17.7734 27.0226 17.614 26.9915 17.4415C26.9604 17.2691 26.9808 17.0913 27.0501 16.9304C27.1195 16.7695 27.2347 16.6326 27.3814 16.5368C27.5281 16.441 27.6998 16.3905 27.875 16.3917C28.1166 16.3924 28.3532 16.3226 28.5557 16.1909C28.7583 16.0592 28.918 15.8712 29.0153 15.6501C29.1126 15.4289 29.1433 15.1842 29.1035 14.9458C29.0638 14.7075 28.9554 14.486 28.7916 14.3083L21.2916 6.15832C21.1225 5.97741 20.9179 5.83318 20.6907 5.73457C20.4635 5.63596 20.2185 5.58508 19.9708 5.58508C19.7231 5.58508 19.4781 5.63596 19.2509 5.73457C19.0237 5.83318 18.8191 5.97741 18.65 6.15832L11.15 14.3083C10.9867 14.4854 10.8784 14.7062 10.8384 14.9438C10.7984 15.1813 10.8284 15.4254 10.9246 15.6462C11.0209 15.8671 11.1794 16.0551 11.3807 16.1875C11.582 16.3198 11.8174 16.3908 12.0583 16.3917C12.2326 16.3926 12.4028 16.4441 12.5484 16.54C12.6939 16.6358 12.8085 16.7719 12.8782 16.9316C12.9479 17.0913 12.9698 17.2679 12.9411 17.4398C12.9124 17.6117 12.8344 17.7715 12.7166 17.9L9.3833 21.475C9.21727 21.6518 9.10665 21.8733 9.06511 22.1123C9.02356 22.3512 9.0529 22.5971 9.14951 22.8196C9.24611 23.042 9.40576 23.2313 9.60873 23.3641C9.8117 23.4969 10.0491 23.5673 10.2916 23.5667H10.7833C10.924 23.5672 11.0617 23.6078 11.1802 23.6837C11.2988 23.7596 11.3933 23.8676 11.4527 23.9952C11.5121 24.1228 11.534 24.2646 11.5158 24.4042C11.4976 24.5437 11.4401 24.6752 11.35 24.7833L8.09997 28.6C7.86551 28.8685 7.71363 29.1991 7.6626 29.5519C7.61158 29.9048 7.66358 30.2648 7.81236 30.5888C7.96114 30.9127 8.20036 31.1868 8.50123 31.3781C8.8021 31.5693 9.15182 31.6695 9.5083 31.6667H30.3916C30.7488 31.6711 31.0997 31.5721 31.4018 31.3815C31.7039 31.1909 31.9444 30.9169 32.0943 30.5926C32.2441 30.2683 32.2968 29.9076 32.246 29.554C32.1953 29.2004 32.0433 28.8691 31.8083 28.6Z" stroke="#45413C" stroke-linecap="round" stroke-linejoin="round"/>
<path id="Vector_8" d="M19.9501 5.57502L19.0084 6.07502C18.8864 6.14037 18.7483 6.16985 18.6102 6.16005C18.4722 6.15025 18.3397 6.10157 18.2281 6.01963C18.1165 5.93769 18.0304 5.82585 17.9797 5.69703C17.9291 5.56821 17.9159 5.42768 17.9417 5.29169L18.1167 4.24169L17.3584 3.50002C17.2581 3.4047 17.1869 3.28296 17.1529 3.14887C17.1189 3.01478 17.1235 2.87381 17.1662 2.74223C17.2089 2.61065 17.2879 2.49383 17.3942 2.40526C17.5005 2.31669 17.6296 2.25998 17.7667 2.24169L18.8167 2.08335L19.2917 1.13335C19.3535 1.01061 19.4481 0.907444 19.5651 0.835357C19.6821 0.76327 19.8168 0.725098 19.9542 0.725098C20.0916 0.725098 20.2263 0.76327 20.3433 0.835357C20.4603 0.907444 20.5549 1.01061 20.6167 1.13335L21.0917 2.08335L22.1417 2.24169C22.2788 2.25998 22.408 2.31669 22.5143 2.40526C22.6205 2.49383 22.6996 2.61065 22.7423 2.74223C22.785 2.87381 22.7896 3.01478 22.7556 3.14887C22.7215 3.28296 22.6503 3.4047 22.5501 3.50002L21.7917 4.24169L21.9667 5.29169C21.9926 5.42768 21.9794 5.56821 21.9287 5.69703C21.878 5.82585 21.7919 5.93769 21.6803 6.01963C21.5688 6.10157 21.4363 6.15025 21.2982 6.16005C21.1601 6.16985 21.0221 6.14037 20.9001 6.07502L19.9501 5.57502Z" fill="#FFE500" stroke="#45413C" stroke-linecap="round" stroke-linejoin="round"/>
<path id="Vector_9" d="M21.4001 23.6083H18.5084C18.4581 23.6082 18.4082 23.6185 18.362 23.6384C18.3158 23.6584 18.2743 23.6877 18.2399 23.7244C18.2055 23.7611 18.179 23.8046 18.1621 23.852C18.1452 23.8994 18.1383 23.9498 18.1417 24L18.3334 26.2C18.4057 26.5814 18.6088 26.9255 18.9078 27.1731C19.2067 27.4207 19.5827 27.5562 19.9709 27.5562C20.3591 27.5562 20.735 27.4207 21.034 27.1731C21.3329 26.9255 21.5361 26.5814 21.6084 26.2L21.7834 24C21.787 23.9483 21.7796 23.8965 21.7617 23.8479C21.7438 23.7994 21.7159 23.7551 21.6796 23.7181C21.6434 23.6811 21.5998 23.6522 21.5516 23.6333C21.5034 23.6144 21.4518 23.6059 21.4001 23.6083Z" fill="#FF866E" stroke="#45413C" stroke-linecap="round" stroke-linejoin="round"/>
<path id="Vector_10" d="M23.6501 19.5417C23.6501 19.8356 23.7669 20.1175 23.9747 20.3254C24.1826 20.5332 24.4645 20.65 24.7584 20.65C25.0524 20.65 25.3343 20.5332 25.5421 20.3254C25.75 20.1175 25.8667 19.8356 25.8667 19.5417C25.8667 19.2477 25.75 18.9658 25.5421 18.758C25.3343 18.5501 25.0524 18.4333 24.7584 18.4333C24.4645 18.4333 24.1826 18.5501 23.9747 18.758C23.7669 18.9658 23.6501 19.2477 23.6501 19.5417ZM14.0417 19.5417C14.0417 19.8356 14.1585 20.1175 14.3664 20.3254C14.5742 20.5332 14.8561 20.65 15.1501 20.65C15.444 20.65 15.7259 20.5332 15.9338 20.3254C16.1416 20.1175 16.2584 19.8356 16.2584 19.5417C16.2584 19.2477 16.1416 18.9658 15.9338 18.758C15.7259 18.5501 15.444 18.4333 15.1501 18.4333C14.8561 18.4333 14.5742 18.5501 14.3664 18.758C14.1585 18.9658 14.0417 19.2477 14.0417 19.5417Z" fill="#45413C" stroke="#45413C" stroke-linecap="round" stroke-linejoin="round"/>
<path id="Vector_11" d="M27.4416 23.425C27.4416 23.8667 26.8416 24.2583 26.0999 24.2583C25.3582 24.2583 24.7582 23.8917 24.7582 23.425C24.7582 22.9583 25.3582 22.5917 26.0999 22.5917C26.8416 22.5917 27.4416 22.9833 27.4416 23.425ZM15.1499 23.4833C15.1499 23.9333 14.5499 24.3167 13.8082 24.3167C13.0666 24.3167 12.4666 23.9583 12.4666 23.4833C12.4666 23.0083 13.0666 22.65 13.8082 22.65C14.5499 22.65 15.1499 23.0417 15.1499 23.4833Z" fill="#FFCEBF"/>
<path id="Vector_12" d="M22.1667 12.8917C22.1667 13.1856 22.2835 13.4675 22.4914 13.6754C22.6992 13.8832 22.9811 14 23.2751 14C23.569 14 23.8509 13.8832 24.0588 13.6754C24.2666 13.4675 24.3834 13.1856 24.3834 12.8917C24.3834 12.5977 24.2666 12.3158 24.0588 12.1079C23.8509 11.9001 23.569 11.7833 23.2751 11.7833C22.9811 11.7833 22.6992 11.9001 22.4914 12.1079C22.2835 12.3158 22.1667 12.5977 22.1667 12.8917Z" fill="#FFE500" stroke="#45413C" stroke-linecap="round" stroke-linejoin="round"/>
<path id="Vector_13" d="M24.7583 11.05C24.7583 11.3439 24.8751 11.6258 25.0829 11.8337C25.2908 12.0415 25.5727 12.1583 25.8666 12.1583C26.1606 12.1583 26.4425 12.0415 26.6503 11.8337C26.8582 11.6258 26.975 11.3439 26.975 11.05C26.975 10.756 26.8582 10.4741 26.6503 10.2663C26.4425 10.0584 26.1606 9.94165 25.8666 9.94165C25.5727 9.94165 25.2908 10.0584 25.0829 10.2663C24.8751 10.4741 24.7583 10.756 24.7583 11.05Z" fill="#FF6242" stroke="#45413C" stroke-linecap="round" stroke-linejoin="round"/>
<path id="Vector_14" d="M18.8416 13.2667C18.8416 13.5606 18.9583 13.8425 19.1662 14.0504C19.374 14.2582 19.6559 14.375 19.9499 14.375C20.2438 14.375 20.5257 14.2582 20.7336 14.0504C20.9414 13.8425 21.0582 13.5606 21.0582 13.2667C21.0582 12.9727 20.9414 12.6908 20.7336 12.4829C20.5257 12.2751 20.2438 12.1583 19.9499 12.1583C19.6559 12.1583 19.374 12.2751 19.1662 12.4829C18.9583 12.6908 18.8416 12.9727 18.8416 13.2667Z" fill="#FF6196" stroke="#45413C" stroke-linecap="round" stroke-linejoin="round"/>
<path id="Vector_15" d="M15.5249 12.8917C15.5249 13.0372 15.5536 13.1813 15.6093 13.3158C15.665 13.4503 15.7466 13.5724 15.8495 13.6754C15.9524 13.7783 16.0746 13.8599 16.2091 13.9156C16.3436 13.9713 16.4877 14 16.6332 14C16.7788 14 16.9229 13.9713 17.0574 13.9156C17.1918 13.8599 17.314 13.7783 17.4169 13.6754C17.5199 13.5724 17.6015 13.4503 17.6572 13.3158C17.7129 13.1813 17.7416 13.0372 17.7416 12.8917C17.7416 12.7461 17.7129 12.602 17.6572 12.4675C17.6015 12.333 17.5199 12.2109 17.4169 12.1079C17.314 12.005 17.1918 11.9234 17.0574 11.8677C16.9229 11.812 16.7788 11.7833 16.6332 11.7833C16.4877 11.7833 16.3436 11.812 16.2091 11.8677C16.0746 11.9234 15.9524 12.005 15.8495 12.1079C15.7466 12.2109 15.665 12.333 15.6093 12.4675C15.5536 12.602 15.5249 12.7461 15.5249 12.8917Z" fill="#00DFEB" stroke="#45413C" stroke-linecap="round" stroke-linejoin="round"/>
<path id="Vector_16" d="M12.9333 11.05C12.9333 11.3439 13.0501 11.6258 13.258 11.8337C13.4658 12.0415 13.7477 12.1583 14.0417 12.1583C14.3356 12.1583 14.6175 12.0415 14.8254 11.8337C15.0332 11.6258 15.15 11.3439 15.15 11.05C15.15 10.756 15.0332 10.4741 14.8254 10.2663C14.6175 10.0584 14.3356 9.94165 14.0417 9.94165C13.7477 9.94165 13.4658 10.0584 13.258 10.2663C13.0501 10.4741 12.9333 10.756 12.9333 11.05Z" fill="#FFE500" stroke="#45413C" stroke-linecap="round" stroke-linejoin="round"/>
</g>
</svg>
